<?xml version="1.0" encoding="UTF-8"?>
<svg id="_레이어_1" data-name="레이어_1" xmlns="http://www.w3.org/2000/svg" version="1.1" viewBox="0 0 566.93 566.93">
  <!-- Generator: Adobe Illustrator 29.6.1, SVG Export Plug-In . SVG Version: 2.1.1 Build 9)  -->
  <defs>
    <style>
      .st0 {
        fill: none;
        stroke-width: 16px;
      }

      .st0, .st1, .st2 {
        stroke: #231815;
        stroke-miterlimit: 10;
      }

      .st3, .st4 {
        fill: #26a045;
      }

      .st1, .st5, .st2 {
        fill: #231815;
      }

      .st1, .st4, .st2 {
        font-family: SegoePrint-Bold, 'Segoe Print';
        font-weight: 700;
      }

      .st1, .st2 {
        font-size: 55.2px;
        stroke-width: 2px;
      }

      .st6 {
        fill: #fdf7e0;
      }

      .st4 {
        font-size: 50px;
        letter-spacing: .1em;
      }

      .st7 {
        fill: #c6d934;
      }

      .st2 {
        letter-spacing: .1em;
      }
    </style>
  </defs>
  <circle class="st6" cx="283.4" cy="283" r="215.32"/>
  <g>
    <g>
      <path class="st3" d="M269.27,293.32c10.31,11.15,9.92,30.56,14.9,43.43-.59-7.81-.9-20.47,1.17-28.02,2.07-7.55,7.02-14.71,14.34-17.5-10.24,11.08-15.4,30.44-15.5,45.53"/>
      <path class="st3" d="M265.69,294.01c10.52,11.99,9.62,29.13,14.9,43.43.76,2.05,7.51,1.6,7.33-.87-1.03-14.39-2.47-36.88,13.73-43.8l-5.25-2.33c-11.08,12.44-15.69,30.14-15.97,46.5-.04,2.54,7.44,2.34,7.49-.37.26-15.51,4.5-32.71,15.04-44.55,2.28-2.56-3.97-2.88-5.25-2.33-18.73,8-18.52,29.92-17.28,47.25l7.33-.87c-5.29-14.33-4.33-31.37-14.9-43.43-1.69-1.93-8.81-.51-7.17,1.36h0Z"/>
    </g>
    <text/>
    <text class="st2" transform="translate(311.73 328.13)"><tspan x="0" y="0">den</tspan></text>
    <text class="st1" transform="translate(227.62 329.45)"><tspan x="0" y="0">a</tspan></text>
    <text class="st4" transform="translate(235.74 213.7)"><tspan x="0" y="0">ittle</tspan></text>
    <g>
      <path class="st3" d="M212.03,238.33c-5.63-9.29-11.13-19.02-12.9-29.88-1.65-10.12.88-20.41,5.62-29.36,2.59-4.88,5.76-9.43,9.33-13.65l-3.93-.51c4.37,8.61,6.97,18.16,7.62,27.79s-.93,19.75-4.09,29.25c-1.83,5.48-4.06,10.82-6.3,16.14-.52,1.24-.37,2.68.9,3.42,1.05.61,2.89.35,3.42-.9,4.23-10.02,8.5-20.16,10.26-30.96s1.15-20.8-1.35-30.89c-1.41-5.67-3.48-11.17-6.13-16.38-.69-1.36-2.92-1.7-3.93-.51-6.94,8.2-12.76,17.64-15.39,28.15-1.34,5.35-1.85,10.95-1.28,16.44.61,5.9,2.29,11.53,4.59,16.97,2.57,6.06,5.85,11.76,9.25,17.38,1.66,2.75,5.99.24,4.32-2.52h0Z"/>
      <path class="st3" d="M213.53,241.42c11.57-11.37,27.58-17.76,43.78-17.73,4.58,0,9.11.53,13.56,1.57,3.13.73,4.47-4.09,1.33-4.82-17.06-3.99-35.46-.93-50.4,8.21-4.27,2.61-8.25,5.72-11.82,9.23-2.3,2.26,1.24,5.79,3.54,3.54h0Z"/>
      <path class="st3" d="M209.15,242.95c9.48,4.46,19.94,6.18,30.32,4.52,8.94-1.44,17.27-5.64,24.09-11.55,3.94-3.42,7.32-7.45,10.15-11.82,1.75-2.71-2.57-5.22-4.32-2.52-4.43,6.86-10.46,12.62-17.66,16.5-7.67,4.13-16.42,5.7-25.06,4.81-5.17-.53-10.29-2.04-14.98-4.25-1.22-.57-2.7-.34-3.42.9-.63,1.09-.33,2.84.9,3.42h0Z"/>
      <path class="st3" d="M208.6,180.91c-2.47-2.13-5.21-.39-6.19,2.29-.45,1.23-.59,2.61-.81,3.89-.26,1.55-.48,3.11-.68,4.67-.72,5.81-.88,11.68-.53,17.53.2,3.27,4.63,3.15,5,0,1.11-9.52,1.63-19.11,1.58-28.69,0-1.23-.95-2.31-2.17-2.46-1.1-.13-2.57.54-2.74,1.79-1.22,8.98-1.67,18.02-1.27,27.07.14,3.21,4.9,3.23,5,0,.2-6.77-.53-13.54-2.1-20.13-.37-1.57-2.32-2.3-3.67-1.49-1.99,1.19-2.67,3.33-2.96,5.51-.34,2.58-.43,5.21-.36,7.81.14,5.26,1,10.51,2.51,15.55.39,1.29,1.75,2.11,3.08,1.75,1.44-.4,1.93-1.73,1.75-3.08-.75-5.54-1.5-11.09-2.25-16.63-.37-2.76-5.22-2.14-4.91.66.97,8.86,3.22,17.41,6.75,25.59.96,2.23,4.95,1.15,4.66-1.26-1.39-11.32-1.64-22.75-.71-34.11h-5c-.14,11.8,1.31,23.54,3.08,35.19l4.57-1.93c-2.67-5.03-5.34-10.07-8.01-15.1-.58-1.09-2.03-1.5-3.12-1.02-1.19.52-1.69,1.69-1.45,2.95,1.35,7.04,3.38,13.93,6.07,20.57l4.57-1.93c-2.66-5.25-4.54-10.84-5.71-16.61l-4.57,1.93c2.86,6.35,5.15,12.94,6.95,19.66.35,1.3,1.78,2.1,3.08,1.75,1.42-.39,1.96-1.74,1.75-3.08-.84-5.34-1.36-10.73-1.58-16.14l-4.91.66c1.22,5.8,2.19,11.65,2.86,17.53.15,1.34,1.04,2.5,2.5,2.5,1.33,0,2.53-1.14,2.5-2.5-.1-4.47-.19-8.95-.29-13.42h-5l.62,11.69c.14,2.71,4.21,3.52,4.91.66,4.65-18.87,4.92-38.65,1.25-57.71-.3-1.57-2.38-2.3-3.67-1.49-2.67,1.67-3.54,4.72-4.57,7.51-1.24,3.36-2.47,6.71-3.71,10.07l4.82,1.33c1.7-6.5,3.99-12.82,6.96-18.85l-4.66-1.26c-.02,5.2.76,10.39,2.32,15.35.86,2.73,4.76,2.16,4.91-.66.25-4.72.07-9.44-.54-14.14l-4.91.66c.68,4.46,1.35,8.93,2.03,13.39.42,2.77,5.13,2.14,4.91-.66-.17-2.14-.34-4.29-.51-6.43l-4.91.66c1.41,9.62,1.81,19.38,1.28,29.08h5c-.56-5.3-1.12-10.61-1.68-15.91-.42-4.01-.6-9.25-4.62-11.46-1.7-.94-3.68.25-3.76,2.16-.41,9.61-.79,19.22-1.15,28.84h5c-.91-8.8-1.93-17.9.16-26.6l-4.91-.66c.48,12.25.96,24.51,1.44,36.76.13,3.28,4.67,3.15,5,0,1.27-11.96,2.53-23.91,3.8-35.87l-4.91.66c3.97,13.78-.94,27.71-3.22,41.31l4.91.66c.96-10.68,4.19-21.04,4.58-31.78.18-4.95-.21-10-1.53-14.79-.95-3.44-4.14-13.49-9.3-8.94-1.93,1.7-3,4.79-3.78,7.16-.92,2.81-1.38,5.77-1.48,8.72-.08,2.45,3.5,3.44,4.66,1.26,3.53-6.66,5.5-13.94,6.08-21.44h-5c-.27,7.26-.54,14.51-.81,21.77-.12,3.22,4.88,3.21,5,0,.27-7.26.54-14.51.81-21.77.05-1.35-1.18-2.5-2.5-2.5-1.44,0-2.4,1.15-2.5,2.5-.51,6.59-2.29,13.07-5.39,18.92l4.66,1.26c.07-2.1.37-4.15.93-6.17s1.48-3.69,2.34-5.56c.03-.06.23-.28.23-.34,0-.39-1.42-.58-1.45-.12-.02.28.47.85.61,1.11.48.93.89,1.88,1.25,2.86.7,1.91,1.21,3.89,1.57,5.89,1.56,8.57.11,17.33-1.47,25.78-1,5.36-2.02,10.73-2.51,16.17-.25,2.78,4.45,3.45,4.91.66,2.43-14.54,7.45-29.24,3.22-43.97-.82-2.86-4.62-2.03-4.91.66-1.27,11.96-2.53,23.91-3.8,35.87h5c-.48-12.25-.96-24.51-1.44-36.76-.11-2.73-4.23-3.51-4.91-.66-2.2,9.19-1.3,18.65-.34,27.93.33,3.15,4.88,3.28,5,0,.36-9.61.75-19.23,1.15-28.84l-3.76,2.16c1.04.57,1.38,1.95,1.63,3.15.41,1.95.51,3.98.72,5.95.49,4.65.98,9.3,1.47,13.95.33,3.16,4.82,3.27,5,0,.56-10.17.02-20.34-1.46-30.41-.41-2.77-5.13-2.14-4.91.66.17,2.14.34,4.29.51,6.43l4.91-.66-2.03-13.39c-.42-2.76-5.27-2.13-4.91.66.61,4.69.8,9.41.54,14.14l4.91-.66c-1.43-4.57-2.16-9.23-2.14-14.02,0-2.37-3.53-3.55-4.66-1.26-3.16,6.41-5.65,13.13-7.46,20.04-.83,3.16,3.72,4.31,4.82,1.33s2.13-5.78,3.19-8.67c.48-1.3.92-2.63,1.45-3.91.3-.73.66-1.59,1.34-2.02l-3.67-1.49c3.5,18.16,3.19,37.08-1.25,55.05l4.91.66-.62-11.69c-.17-3.19-5.07-3.24-5,0,.1,4.47.19,8.95.29,13.42h5c-.72-6.33-1.72-12.63-3.04-18.86-.58-2.75-5.03-2.15-4.91.66.24,5.85.84,11.68,1.76,17.47l4.82-1.33c-1.91-7.15-4.41-14.11-7.45-20.86-.5-1.12-2.09-1.48-3.12-1.02-1.18.52-1.7,1.7-1.45,2.95,1.25,6.19,3.36,12.17,6.22,17.8,1.26,2.48,5.64.72,4.57-1.93-2.69-6.65-4.71-13.53-6.07-20.57l-4.57,1.93c2.67,5.03,5.34,10.07,8.01,15.1.58,1.09,2.03,1.5,3.12,1.02,1.23-.54,1.64-1.68,1.45-2.95-1.7-11.21-3.03-22.51-2.9-33.86.02-1.35-1.16-2.5-2.5-2.5-1.44,0-2.39,1.15-2.5,2.5-.93,11.37-.68,22.8.71,34.11l4.66-1.26c-3.15-7.31-5.21-15.16-6.07-23.07l-4.91.66c.75,5.54,1.5,11.09,2.25,16.63l4.82-1.33c-1.25-4.18-2.05-8.47-2.28-12.83-.11-2.15-.1-4.31.04-6.46.06-.87.09-1.75.26-2.6.08-.4.2-.77.32-1.16.11-.35.29-.24.16-.16l-3.67-1.49c1.48,6.17,2.12,12.46,1.93,18.8h5c-.38-8.59-.07-17.22,1.09-25.74l-4.91-.66c.05,9.59-.47,19.17-1.58,28.69h5c-.27-4.49-.25-9,.11-13.49.17-2.16.42-4.31.76-6.44.17-1.09.37-2.18.58-3.27.08-.39.26-.85.27-1.24,0-.12.06-.23.17-.32-.24.4-.68.52-1.33.38l-1.1-.64.22.19c1.02.88,2.53,1,3.54,0,.9-.9,1.03-2.65,0-3.54h0Z"/>
      <path class="st3" d="M211.12,195.78c.46,5.6.07,11.2-1.32,16.65-.31,1.2.29,2.48,1.45,2.95,1.08.43,2.57.11,3.12-1.02,2.21-4.52,3.31-9.39,4.35-14.27l-4.91-.66c-.42,3.84-.84,7.67-1.26,11.51h5c.04-2.21.57-4.35,1.67-6.27l-4.66-1.26c-.02,3.3-.32,6.57-.98,9.81-.27,1.32.38,2.7,1.75,3.08,1.23.34,2.81-.42,3.08-1.75.74-3.67,1.14-7.4,1.16-11.14.01-2.48-3.42-3.41-4.66-1.26-1.55,2.68-2.31,5.7-2.36,8.79-.02,1.35,1.16,2.5,2.5,2.5,1.47,0,2.35-1.15,2.5-2.5.42-3.84.84-7.67,1.26-11.51.13-1.22-1.05-2.32-2.17-2.46s-2.48.56-2.74,1.79c-.94,4.43-1.86,9.01-3.85,13.08l4.57,1.93c1.5-5.86,2-11.96,1.5-17.98-.11-1.35-1.07-2.5-2.5-2.5-1.27,0-2.61,1.15-2.5,2.5h0Z"/>
      <path class="st3" d="M220.45,242.51c3.09-.82,6.03-2.14,8.7-3.9,2.37-1.57.89-5.19-1.93-4.57-3.52.78-6.9,1.98-10.16,3.52-2.57,1.21-.76,5.4,1.93,4.57,3.48-1.08,6.57-3.1,8.96-5.86,1.3-1.5.56-4.43-1.77-4.27-4.21.3-7.71,2.5-10.04,5.99-1.02,1.53.31,3.87,2.16,3.76,2.65-.16,5.09-1.29,6.78-3.37,1.5-1.84.15-4.88-2.43-4.18-2.99.81-5.86,2.02-8.53,3.58-1.07.62-1.52,2-1.02,3.12.54,1.23,1.68,1.63,2.95,1.45,4.72-.68,9.56,1.12,14.28,1.22,4.3.09,8.65-.65,12.73-1.98,8.62-2.81,16.19-7.96,23.19-13.59,1.82-1.47.18-4.16-1.77-4.27-9.41-.54-18.89.28-28.06,2.46-4.15.99-8.83,2.03-12.39,4.52-1.78,1.25-3.47,2.86-3.57,5.18-.12,2.7,2.11,3.96,4.47,4.18,5.18.48,10.38-.65,15.05-2.86,2.01-.95,1.35-4.03-.6-4.57-4.85-1.34-10.06.17-13.42,3.93-1.25,1.4-.77,3.63,1.1,4.18,3.52,1.02,7.32,1.07,10.83,0,2.9-.88,8.58-3.24,7.61-7.17-.84-3.4-5.94-4.53-8.93-4.44-3.4.11-6.63,1.57-8.92,4.08-1.37,1.5-.64,3.46,1.1,4.18,6.79,2.78,14.72,1,19.81-4.24,1.36-1.4.67-3.58-1.1-4.18-5.27-1.78-10.94-1.32-15.88,1.22-1.91.98-1.44,4.07.6,4.57,5.46,1.33,11.31.28,15.8-3.16,1.35-1.03,1.87-3.4,0-4.32l-4.38-2.16-.6,4.57c1.71-.43,3.42-.87,5.13-1.3,2.03-.52,2.51-3.57.6-4.57-1.14-.6-2.13-.74-3.38-.47-1.06.23-1.84,1.36-1.84,2.41,0,1.18.8,2.01,1.84,2.41,2.36.92,4.99.65,7.16-.63s1.17-4.57-1.26-4.66l-4.74-.18,1.26,4.66c1.75-.85,3.74-1.11,5.65-.76v-4.82c-5.4,1.58-11.14,4.28-12.5,10.3-.45,2.01,1.19,3.36,3.08,3.08,5.43-.81,10.61-3.02,15.01-6.29,1-.74,1.56-1.9,1.02-3.12-.46-1.05-1.76-1.89-2.95-1.45-4.23,1.57-7.9,4.2-10.68,7.76-.63.81-.96,1.72-.52,2.73.38.85,1.29,1.61,2.28,1.54,4.98-.37,9.53-2.53,12.96-6.18,1.11-1.19.9-3.07-.51-3.93-2.02-1.23-4.25-2.11-6.6-2.46l.6,4.57c3.59-1.79,7.61-1.8,11.35-.48l-1.1-4.18c-6.12,6.11-13.19,11.09-21.05,14.71l3.03,3.93c3.46-2.73,6.95-5.41,10.37-8.19,2.87-2.33,5.35-6.83,1.74-9.72-2.93-2.35-7.35-1.37-10.76-.94-4.18.52-8.33,1.27-12.41,2.3-4.62,1.16-9.14,2.67-13.54,4.48-1.25.51-2.14,1.66-1.75,3.08.32,1.18,1.82,2.26,3.08,1.75,5.75-2.37,11.71-4.21,17.8-5.46,2.94-.6,5.9-1.07,8.88-1.38,1.35-.14,2.72-.3,4.08-.29.73,0,1.39.09,1.74.71l-.34-1.26c.1,1.06-.35,1.66-1.11,2.38-1.09,1.05-2.36,1.94-3.55,2.88-2.59,2.04-5.18,4.09-7.77,6.13-.96.76-.89,2.41-.2,3.28.82,1.03,2.06,1.18,3.23.64,8.22-3.78,15.67-9.1,22.06-15.49,1.4-1.4.63-3.57-1.1-4.18-5.03-1.77-10.45-1.38-15.21.99-1.81.9-1.53,4.25.6,4.57,1.96.29,3.71.92,5.4,1.96l-.51-3.93c-2.49,2.66-5.75,4.45-9.42,4.72l1.77,4.27c2.23-2.85,5.05-5.2,8.48-6.47l-1.93-4.57c-4.12,3.06-8.74,5.02-13.82,5.78l3.08,3.08c.94-4.2,5.27-5.72,9-6.81,2.22-.65,2.54-4.35,0-4.82-3.32-.61-6.47-.21-9.51,1.27-2.35,1.14-1.05,4.57,1.26,4.66l4.74.18-1.26-4.66c-1.11.65-2.13.58-3.31.12v4.82l-.47-.04.6-4.57c-1.71.43-3.42.87-5.13,1.3-1.99.51-2.55,3.61-.6,4.57l4.38,2.16v-4.32c-3.46,2.65-7.68,3.69-11.95,2.66l.6,4.57c3.78-1.95,8.03-2.06,12.02-.72l-1.1-4.18c-3.97,4.08-9.72,5.09-14.94,2.95l1.1,4.18c1.25-1.37,2.82-2.32,4.68-2.57.94-.13,1.92-.07,2.84.17.43.11.87.24,1.27.42.21.09.44.28.66.34.06.1.12.13.17.08.44-.3.47-.82.09-1.58-.25.06-.74.58-.95.72-.51.33-1.03.62-1.57.89-1,.49-2.07.82-3.16,1.05-2.28.49-4.6.29-6.82-.35l1.1,4.18c2.21-2.46,5.33-3.53,8.56-2.64l-.6-4.57c-2.1.99-4.37,1.68-6.67,2.03-1.11.17-2.24.24-3.37.25-.7,0-2.2-.31-2.67-.13.09.84.32,1.18.71,1.01.04-.04.06-.08.08-.13.33-.13.71-.67,1.01-.89.8-.59,1.72-1.07,2.63-1.46,2-.86,4.17-1.41,6.26-1.97,9.47-2.52,19.25-3.43,29.03-2.87l-1.77-4.27c-6.5,5.24-13.7,10.1-21.76,12.55-3.86,1.17-7.83,1.74-11.86,1.51-4.86-.29-9.47-1.7-14.37-.99l1.93,4.57c2.32-1.35,4.74-2.37,7.34-3.08l-2.43-4.18c-.85,1.04-1.87,1.82-3.25,1.91l2.16,3.76c1.29-1.93,3.37-3.34,5.72-3.51l-1.77-4.27c-1.84,2.12-4.06,3.73-6.75,4.57l1.93,4.57c2.87-1.35,5.87-2.33,8.96-3.01l-1.93-4.57c-2.33,1.54-4.8,2.68-7.5,3.4-3.11.82-1.79,5.65,1.33,4.82h0Z"/>
      <g>
        <path class="st7" d="M211.04,232.02c-1.8-2.91-2.38-6.58-3-9.89-.82-4.38-1.38-8.85-1.66-13.3-.57-9.05.98-17.82,3.54-26.49.68-2.3,1.41-4.59,2.21-6.86.65-1.85,1.32-3.78,2.62-5.28.32-.36-1.08-.23-1.14-.21-.58.1-1.31.29-1.71.75-1.14,1.31-1.78,2.96-2.36,4.57-.72,1.97-1.36,3.97-1.98,5.98-1.29,4.19-2.4,8.43-3.17,12.75-1.62,9.01-.99,17.94.44,26.93.62,3.89,1.22,8.41,3.33,11.82.41.66,3.09-.47,2.9-.78h0Z"/>
        <path class="st7" d="M206.25,203.88c1.49-3.2,3.59-6.14,5.69-8.96s4.45-5.84,7.13-8.31c.47-.43-.42-.42-.66-.4-.6.05-1.48.24-1.94.67-2.71,2.49-5.03,5.43-7.22,8.37s-4.31,5.89-5.84,9.16c-.2.44,1,.24,1.14.21.44-.08,1.48-.27,1.71-.75h0Z"/>
        <path class="st7" d="M207.33,217.53c.93-2.61,2.86-4.92,4.55-7.07,1.78-2.26,3.65-4.46,5.57-6.6.41-.46.82-.92,1.24-1.37.46-.5-.4-.69-.74-.68-.66.01-1.46.25-1.92.75-3.37,3.63-6.68,7.43-9.44,11.54-.81,1.21-1.64,2.48-2.13,3.86-.28.78,2.57.43,2.88-.43h0Z"/>
      </g>
      <g>
        <path class="st7" d="M214.85,240.38c2.59.64,5.17,1.45,7.84,1.64,4.04.28,8.22.05,12.24-.43,4.3-.52,8.45-1.54,12.45-3.21s7.61-3.71,11.16-6c1.97-1.27,3.92-2.6,5.81-4,1.59-1.18,3.2-2.41,4.23-4.14.25-.42-1.03-.23-1.14-.21-.49.09-1.42.27-1.71.75-1.73,2.9-5.31,4.9-8.05,6.72-3.17,2.11-6.45,4.09-9.91,5.7-7.05,3.28-14.98,4.19-22.71,3.75-2.66-.15-5.24-.99-7.81-1.63-.62-.15-1.47.13-2.02.39-.25.12-.99.53-.38.68h0Z"/>
        <path class="st7" d="M241.45,240.09c2.58-2.4,4.69-5.36,6.69-8.23,2.16-3.11,4.27-6.35,5.86-9.8.2-.44-1-.24-1.14-.21-.43.08-1.49.27-1.71.75-1.55,3.37-3.6,6.54-5.71,9.58-1.97,2.85-4.05,5.8-6.6,8.18-.47.43.42.42.66.4.6-.05,1.48-.24,1.94-.67h0Z"/>
        <path class="st7" d="M229.57,241.59c2.25-1.69,3.88-4.33,5.41-6.65,1.68-2.55,3.26-5.18,4.77-7.83.32-.57.65-1.14.96-1.71.3-.54-1.01-.49-1.21-.47-.6.09-1.36.33-1.67.9-2.37,4.31-4.9,8.62-7.88,12.54-.81,1.06-1.66,2.17-2.66,2.92-.47.35-.32.75.23.85.66.11,1.52-.15,2.05-.55h0Z"/>
      </g>
    </g>
    <polygon class="st5" points="451.39 337.95 445.32 339.54 446.76 342.18 451.39 337.95"/>
    <path class="st3" d="M206.81,239.2c.47,1.07.96,2.15,1.64,3.1.15.21.44.34.68.18.21-.14.34-.46.18-.68-.69-.95-1.17-2.03-1.64-3.1-.11-.24-.47-.31-.68-.18-.25.16-.29.43-.18.68h0Z"/>
    <path class="st3" d="M206.63,238.94c.16.27.23.47.33.77.11.32.23.64.4.94s.37.54.57.8c.21.28.42.56.64.83.16.21.43.33.68.18.21-.12.34-.47.18-.68-.21-.27-.41-.54-.62-.81s-.42-.53-.59-.83c-.15-.26-.22-.48-.33-.78-.11-.32-.23-.64-.4-.93-.14-.23-.45-.32-.68-.18s-.32.45-.18.68h0Z"/>
    <path class="st3" d="M206.14,237.69c.33,1.15.76,2.28,1.29,3.35.23.47.47,1.12.95,1.4.26.16.59.17.89.18.32.02.64.02.96,0,.27-.01.5-.22.5-.5,0-.26-.23-.51-.5-.5s-.52.02-.79,0c-.16,0-.43.02-.57-.06-.15-.1-.25-.4-.33-.55-.13-.24-.25-.47-.36-.72-.44-.93-.8-1.89-1.08-2.88-.17-.62-1.14-.36-.96.27h0Z"/>
    <path class="st3" d="M205.28,236.35c.49,1.39,1.05,2.76,1.67,4.09.3.64.58,1.3.94,1.9.38.64,1.35.55,1.99.52s.64-1.03,0-1c-.32.01-.64.01-.96-.02-.06,0-.13,0-.2-.02.05.06.06.07.03.02-.02-.03-.03-.06-.04-.08-.07-.14-.14-.27-.21-.41-.29-.57-.57-1.14-.83-1.72-.53-1.16-1-2.34-1.42-3.54-.21-.6-1.18-.34-.96.27h0Z"/>
    <path class="st3" d="M208.27,242.69c.41.32.92.44,1.42.51.65.1,1.3.18,1.94.26,1.3.16,2.6.31,3.9.43.64.06.64-.94,0-1-1.21-.11-2.42-.24-3.62-.39-.59-.07-1.19-.15-1.78-.24-.48-.07-.96-.13-1.36-.44-.22-.17-.56-.03-.68.18-.15.26-.03.52.18.68h0Z"/>
    <path class="st3" d="M205,236.31c.17.44.42.84.66,1.25s.46.8.69,1.2c.13.23.46.32.68.18s.32-.44.18-.68c-.22-.39-.44-.77-.67-1.16-.11-.19-.21-.37-.32-.56-.05-.09-.1-.17-.15-.26-.03-.05-.05-.1-.08-.15-.01-.03-.02-.05-.04-.08.02.05.02.05,0,0-.09-.24-.34-.44-.62-.35-.24.08-.45.35-.35.62h0Z"/>
    <polygon class="st7" points="213.44 236.32 210.42 230.82 208.21 232.86 213.44 236.32"/>
    <polygon class="st7" points="210.9 238.5 214.78 240.4 217.01 239.26 210.9 238.5"/>
    <g>
      <g>
        <path class="st5" d="M205.94,261.49c-1.13-6-3.35-11.91-7.81-16.06-4.01-3.89-10.42-6.68-15.69-7.55-5.57-.69-10.44,3.57-14.6,6.71-10.63,8.68-10.99,29.07,4.95,30.79,13.23,1.44,28.37,1.62,28.97-14.69,0,0,12.83.43,12.83.43.61,21.48.9,43.54-5.51,64.66-6.67,22.24-22.55,43.63-45.52,50.93-9.15.94-18.84-3.11-21.35-12.88-2.82-11.64,4.56-22.86,14.25-28.25,9.35-4.78,22.82-9.19,33.05-4.67.93.46,1.84,1,2.68,1.62,4.19,3.15,8.5,6.14,12.94,8.93,72.38,45.63,166.13,34.42,240.19-1.92,0,0,1.44,2.63,1.44,2.63-36.77,22.42-79.16,36.81-122.38,40.24-49.43,4.05-100.95-8.1-141.02-38.05-2.57-.98-5.52-.46-9.09.3-2.91.7-5.94,1.76-8.65,3.02-4.18,1.72-8.25,5.81-8.95,10.13-.19,1.32-.15,2.34.54,3.1,1.05.79,2.8,1.01,4.53.9,0,0-1.98.38-1.98.38,17.71-5.96,29.99-23.14,35.69-40.69,6.19-19.21,6.12-39.92,6.3-60.26,0,0,12.83.43,12.83.43-.61,8.4-4.55,17.18-12.12,21.56-9.56,5.61-20.36,4.9-30.66,3.35-9.56-1.18-18.02-7.76-20.54-17.24-3.92-13.54,3.62-28.16,15.56-34.6,4.79-3.1,10.96-5.68,16.84-4.34,3.8.78,6.93,2.26,10.24,4.02,10.24,5.23,15.69,15.27,16.5,26.45,0,0-4.46.61-4.46.61h0Z"/>
        <circle class="st0" cx="181.39" cy="257.8" r="25.2"/>
      </g>
      <path class="st5" d="M214.59,261.15c.01-.73,0-1.45-.03-2.18-.01-.26-.22-.51-.5-.5-.26.01-.51.22-.5.5.04.73.05,1.45.03,2.18,0,.26.23.51.5.5s.49-.22.5-.5h0Z"/>
    </g>
  </g>
</svg>