<svg width="42" height="40" viewBox="0 0 42 40" fill="none" xmlns="http://www.w3.org/2000/svg">
<path d="M41.05 4.2V0.6L37.5524 0.2C37.3581 0.2 36.1922 0 34.2491 0C26.2823 0 20.4529 2.4 17.1496 6.6C14.6235 5 11.1259 4 7.04531 4C5.10218 4 3.74199 4.2 3.74199 4.2L0.0500488 4.8L0.244362 8.2C0.438674 14.2 3.35337 25.6 13.4576 25.6H13.8463V32.4C6.46237 33.4 0.244362 36 0.244362 36V40H39.1069V36C39.1069 36 32.8889 33.4 25.505 32.4V26C37.7467 25.8 41.05 11.6 41.05 4.2ZM19.6756 32H17.7325V20.8C17.7325 20.8 17.3439 14 11.9031 14C11.9031 14 14.8178 15.6 15.5951 21.4C14.8178 21.6 14.0406 21.6 13.4576 21.6C4.51924 21.6 4.13062 8.2 4.13062 8.2C4.13062 8.2 5.29649 8 7.04531 8C10.7373 8 16.7609 8.8 18.5098 14.2C19.4813 5.2 29.3913 4 34.2491 4C35.9979 4 37.1638 4.2 37.1638 4.2C37.1638 4.2 37.1638 22.2 24.9221 22.2H23.5619C23.5619 18.2 27.4482 12.2 27.4482 12.2C21.6188 14.2 21.6188 22 21.6188 22V32H19.6756Z" fill="#2ECC71"/>
</svg>
